<svg width="1174" height="731" viewBox="0 0 1174 731" fill="none" xmlns="http://www.w3.org/2000/svg">
<path d="M826.4 396H770.4V379C788.096 366.685 803.775 367.756 824.4 380L826.4 396Z" fill="#DCCA5E"/>
<path d="M757.433 697.957L745.173 697.956L743.34 650.668L757.435 650.669L757.433 697.957Z" fill="#FFB8B8"/>
<path d="M760.559 709.841L721.029 709.839V709.339C721.029 707.319 721.427 705.318 722.2 703.451C722.973 701.584 724.106 699.888 725.535 698.459C726.964 697.031 728.66 695.897 730.527 695.124C732.394 694.351 734.394 693.953 736.415 693.953H736.416L760.56 693.954L760.559 709.841Z" fill="#2F2E41"/>
<path d="M826.486 697.957L838.746 697.956L840.579 650.668L826.484 650.669L826.486 697.957Z" fill="#FFB8B8"/>
<path d="M823.359 693.954L847.503 693.953H847.504C849.525 693.953 851.525 694.351 853.392 695.124C855.259 695.897 856.955 697.031 858.384 698.459C859.813 699.888 860.946 701.584 861.719 703.451C862.493 705.318 862.891 707.319 862.891 709.339V709.839L823.36 709.841L823.359 693.954Z" fill="#2F2E41"/>
<path d="M826.808 691.896C825.785 691.893 824.794 691.543 823.996 690.903C823.198 690.263 822.64 689.371 822.414 688.374L792.028 555.834C791.961 555.498 791.778 555.195 791.51 554.981C791.242 554.766 790.907 554.653 790.564 554.661H790.556C790.212 554.654 789.876 554.77 789.609 554.988C789.341 555.205 789.16 555.51 789.096 555.849L761.191 687.495C760.974 688.502 760.419 689.404 759.618 690.053C758.818 690.701 757.819 691.057 756.789 691.061H743.496C742.883 691.061 742.276 690.936 741.713 690.693C741.15 690.45 740.643 690.094 740.222 689.648C739.801 689.201 739.476 688.674 739.267 688.097C739.057 687.521 738.968 686.908 739.004 686.295L748.905 519.44L752.889 518.261L752.964 518.262L831.222 518.947L847.889 685.619C847.948 686.213 847.887 686.813 847.711 687.384C847.535 687.955 847.246 688.485 846.863 688.943C846.48 689.401 846.009 689.778 845.479 690.052C844.948 690.327 844.368 690.493 843.773 690.541L827.169 691.881C827.048 691.891 826.928 691.896 826.808 691.896Z" fill="#2F2E41"/>
<path d="M794.491 365.532C808.056 365.532 819.052 354.536 819.052 340.971C819.052 327.406 808.056 316.41 794.491 316.41C780.926 316.41 769.93 327.406 769.93 340.971C769.93 354.536 780.926 365.532 794.491 365.532Z" fill="#FFB8B8"/>
<path d="M779.445 537.734C775.136 537.787 770.844 537.183 766.717 535.943C763.047 534.836 759.642 532.99 756.712 530.517C753.782 528.045 751.388 525 749.679 521.568C749.138 520.535 749.018 519.333 749.344 518.213C752.053 508.968 765.143 460.913 756.791 422.71C755.612 417.403 755.514 411.913 756.503 406.568C757.492 401.222 759.547 396.13 762.546 391.596C765.475 387.098 769.281 383.235 773.735 380.239C778.19 377.243 783.202 375.175 788.473 374.158L788.473 374.157C789.859 373.886 791.251 373.665 792.613 373.497C798.439 372.779 804.352 373.359 809.929 375.194C815.506 377.028 820.608 380.073 824.87 384.11C829.26 388.226 832.684 393.261 834.9 398.856C837.116 404.45 838.067 410.465 837.686 416.47L831.267 519.474C831.223 520.246 830.978 520.994 830.558 521.643C830.138 522.292 829.556 522.821 828.869 523.177C821.477 527.051 799.27 537.734 779.445 537.734Z" fill="#3F3D56"/>
<path d="M822.237 322.892C819.686 316.48 815.013 311.137 808.997 307.755C802.982 304.373 795.989 303.156 789.185 304.308L796.929 310.566C787.307 310.89 777.179 310.201 770.309 316.945C772.496 316.884 775.363 321.562 777.55 321.502C773.461 321.583 769.753 324.456 767.947 328.125C766.275 331.895 765.883 336.109 766.833 340.122C767.641 344.131 773.801 353.524 775.46 357.262C775.174 347.492 794.409 324.188 803.801 326.62C799.029 328.39 794.888 331.534 791.901 335.655C798.291 332.43 805.517 331.248 812.602 332.268C814.219 332.639 815.888 332.732 817.537 332.544C818.547 332.344 819.49 331.889 820.274 331.221C821.058 330.553 821.658 329.695 822.017 328.729C822.375 327.764 822.48 326.722 822.321 325.704C822.162 324.686 821.745 323.726 821.109 322.916L822.237 322.892Z" fill="#2F2E41"/>
<path d="M777.753 531.549C777.133 531.548 776.519 531.418 775.951 531.168L729.35 510.828C728.361 510.404 727.557 509.636 727.088 508.667C726.619 507.697 726.516 506.591 726.797 505.551L757.647 389.012C758.221 386.844 759.221 384.811 760.59 383.034C761.958 381.257 763.667 379.771 765.617 378.662C767.567 377.554 769.719 376.846 771.946 376.579C774.173 376.312 776.431 376.492 778.588 377.109L790.923 380.629L782.239 527.31C782.195 528.034 781.976 528.736 781.603 529.357C781.229 529.979 780.712 530.501 780.093 530.88C779.39 531.315 778.58 531.547 777.753 531.549V531.549Z" fill="#DCCA5E"/>
<path d="M864.001 505.55L861.95 497.82L858.981 486.58L857.55 481.19L854.581 469.98L833.15 389.01C832.579 386.841 831.58 384.807 830.211 383.029C828.843 381.251 827.134 379.764 825.183 378.656C823.233 377.547 821.081 376.84 818.853 376.574C816.625 376.309 814.367 376.491 812.211 377.11L799.88 380.63L805.99 483.8L806.621 494.57L807.021 501.36V501.37L807.66 512.08L808.561 527.31C808.634 528.454 809.138 529.527 809.971 530.313C810.804 531.1 811.905 531.542 813.05 531.55C813.67 531.546 814.282 531.417 814.851 531.17L861.45 510.83C862.441 510.406 863.245 509.637 863.713 508.667C864.182 507.697 864.284 506.59 864.001 505.55V505.55Z" fill="#DCCA5E"/>
<path d="M857.55 481.19L806.621 494.57L805.99 483.8L854.581 469.98L857.55 481.19Z" fill="#CCCCCC"/>
<path d="M861.95 497.82L807.66 512.08L807.021 501.37V501.36L858.981 486.58L861.95 497.82Z" fill="#CCCCCC"/>
<path d="M784.181 486.12L783.55 496.69L733.601 481.81L736.53 470.75L784.181 486.12Z" fill="#CCCCCC"/>
<path d="M783.14 503.65L732.17 487.2L729.24 498.29L782.52 514.16L783.14 503.65Z" fill="#CCCCCC"/>
<path d="M733.059 514.704C734.579 514.307 735.993 513.582 737.202 512.58C738.411 511.578 739.386 510.323 740.057 508.903C740.729 507.483 741.081 505.934 741.089 504.363C741.096 502.793 740.76 501.24 740.103 499.813L764.065 424.588L747.073 421.029L725.104 494.782C722.781 496.045 721.002 498.117 720.105 500.604C719.207 503.091 719.252 505.821 720.233 508.276C721.214 510.732 723.061 512.743 725.425 513.927C727.789 515.112 730.505 515.388 733.059 514.704V514.704Z" fill="#FFB8B8"/>
<path d="M764.73 387.606C769.609 388.103 772.353 393.589 771.14 400.42L765.319 433.198C764.882 435.655 762.86 437.601 761.18 437.181L741.489 432.259C739.974 431.88 739.416 429.727 740.274 427.573L752.095 397.92C754.662 391.48 759.999 387.123 764.73 387.606Z" fill="#3F3D56"/>
<path d="M794.4 295C802.713 295.001 810.699 298.237 816.667 304.023C822.635 309.81 826.117 317.691 826.375 326H832.4C832.931 326 833.44 326.211 833.815 326.586C834.19 326.961 834.4 327.47 834.4 328V336C834.4 336.53 834.19 337.039 833.815 337.414C833.44 337.789 832.931 338 832.4 338H764.4C763.87 338 763.361 337.789 762.986 337.414C762.611 337.039 762.4 336.53 762.4 336V327C762.4 322.798 763.228 318.636 764.836 314.754C766.444 310.872 768.802 307.344 771.773 304.373C774.744 301.401 778.272 299.044 782.155 297.436C786.037 295.828 790.198 295 794.4 295Z" fill="#DCCA5E"/>
<path d="M791.46 477.252C792.009 477.315 792.553 477.422 793.086 477.571L830.732 445.287L828.532 433.441L845.974 427.784L851.908 448.375C852.387 450.038 852.314 451.813 851.699 453.431C851.084 455.049 849.961 456.425 848.498 457.35L800.821 487.521C800.855 489.652 800.239 491.743 799.055 493.516C797.872 495.289 796.176 496.659 794.195 497.445C792.213 498.231 790.039 498.395 787.962 497.915C785.885 497.435 784.004 496.334 782.568 494.759C781.132 493.184 780.209 491.208 779.923 489.096C779.637 486.984 780.001 484.834 780.966 482.934C781.931 481.033 783.452 479.471 785.327 478.456C787.201 477.441 789.341 477.021 791.46 477.252V477.252Z" fill="#FFB8B8"/>
<path d="M830.83 390.313C836.042 388.854 841.249 392.821 842.994 399.579L851.368 432.009C851.995 434.44 850.776 437.024 848.872 437.298L826.565 440.506C824.849 440.753 823.337 438.993 823.274 436.675L822.408 404.762C822.219 397.831 825.777 391.728 830.83 390.313Z" fill="#3F3D56"/>
<path d="M1130.66 597.47C1120.39 583.809 1112.27 568.656 1106.59 552.538C1106.26 551.574 1106.28 550.524 1106.65 549.576C1107.03 548.628 1107.72 547.842 1108.62 547.359L1143.76 528.527C1144.33 528.22 1144.96 528.047 1145.61 528.021C1146.26 527.995 1146.9 528.116 1147.49 528.376C1148.09 528.638 1148.63 529.034 1149.05 529.534C1149.48 530.033 1149.79 530.624 1149.95 531.26C1154.04 546.792 1161.73 561.142 1172.4 573.151C1172.84 573.64 1173.16 574.222 1173.34 574.854C1173.52 575.486 1173.55 576.151 1173.44 576.797C1173.32 577.434 1173.07 578.037 1172.69 578.56C1172.31 579.083 1171.82 579.512 1171.25 579.815L1136.1 598.647C1135.2 599.126 1134.16 599.271 1133.17 599.056C1132.17 598.84 1131.28 598.278 1130.66 597.47V597.47Z" fill="#CCCCCC"/>
<path d="M1133.06 595.668C1133.25 595.904 1133.52 596.066 1133.81 596.128C1134.11 596.189 1134.42 596.145 1134.68 596.003L1169.83 577.171C1170 577.082 1170.15 576.955 1170.26 576.799C1170.37 576.643 1170.45 576.464 1170.48 576.274C1170.52 576.074 1170.51 575.867 1170.45 575.672C1170.4 575.476 1170.29 575.296 1170.16 575.146C1159.18 562.784 1151.26 548.01 1147.05 532.021C1147 531.823 1146.91 531.64 1146.78 531.485C1146.64 531.329 1146.48 531.207 1146.29 531.126C1146.12 531.047 1145.92 531.01 1145.73 531.018C1145.54 531.026 1145.35 531.079 1145.18 531.172L1110.04 550.003C1109.77 550.147 1109.56 550.38 1109.45 550.66C1109.34 550.941 1109.32 551.252 1109.42 551.541C1115 567.37 1122.97 582.251 1133.06 595.668V595.668Z" fill="white"/>
<path d="M1146.07 555.402L1126.93 563.852C1126.2 564.172 1125.38 564.191 1124.64 563.903C1123.89 563.616 1123.3 563.046 1122.97 562.319L1122.5 561.246C1122.18 560.518 1122.16 559.693 1122.45 558.951C1122.74 558.209 1123.31 557.612 1124.03 557.29L1143.18 548.841C1143.9 548.52 1144.73 548.502 1145.47 548.789C1146.21 549.076 1146.81 549.646 1147.13 550.374L1147.6 551.446C1147.93 552.174 1147.94 552.999 1147.66 553.741C1147.37 554.483 1146.8 555.08 1146.07 555.402V555.402Z" fill="#CCCCCC"/>
<path d="M1153.07 568.402L1133.93 576.852C1133.2 577.172 1132.38 577.191 1131.64 576.903C1130.89 576.616 1130.3 576.046 1129.97 575.319L1129.5 574.246C1129.18 573.518 1129.16 572.693 1129.45 571.951C1129.74 571.209 1130.31 570.612 1131.03 570.29L1150.18 561.841C1150.9 561.52 1151.73 561.502 1152.47 561.789C1153.21 562.076 1153.81 562.646 1154.13 563.374L1154.6 564.446C1154.93 565.174 1154.94 565.999 1154.66 566.741C1154.37 567.483 1153.8 568.08 1153.07 568.402V568.402Z" fill="#CCCCCC"/>
<path d="M1108.18 557.57C1106.86 556.72 1105.74 555.591 1104.9 554.262C1104.06 552.934 1103.53 551.438 1103.33 549.88C1103.14 548.321 1103.28 546.739 1103.76 545.244C1104.25 543.749 1105.05 542.378 1106.12 541.227L1098.04 426.669L1121.3 428.924L1121.94 541.111C1123.75 543.034 1124.8 545.555 1124.88 548.198C1124.96 550.841 1124.06 553.422 1122.37 555.451C1120.67 557.479 1118.29 558.816 1115.68 559.206C1113.06 559.597 1110.39 559.014 1108.18 557.57L1108.18 557.57Z" fill="#A0616A"/>
<path d="M1103.31 465.162C1102.76 464.77 1102.31 464.261 1101.99 463.673C1101.67 463.084 1101.48 462.431 1101.45 461.761L1099.75 430.885C1099.58 427.826 1100.55 424.813 1102.47 422.427C1104.39 420.04 1107.13 418.45 1110.15 417.962C1113.18 417.474 1116.27 418.124 1118.85 419.785C1121.42 421.446 1123.29 424.001 1124.09 426.958L1131.58 454.563C1131.89 455.715 1131.73 456.943 1131.13 457.978C1130.54 459.013 1129.56 459.77 1128.41 460.084L1107.12 465.856C1106.47 466.033 1105.79 466.062 1105.13 465.942C1104.48 465.822 1103.85 465.555 1103.31 465.162V465.162Z" fill="#3F3D56"/>
<path d="M1063.68 698.408H1051.42L1045.58 651.12H1063.68L1063.68 698.408Z" fill="#A0616A"/>
<path d="M1042.66 694.905H1066.3V709.791H1027.77C1027.77 707.837 1028.16 705.901 1028.91 704.095C1029.65 702.288 1030.75 700.647 1032.13 699.265C1033.51 697.882 1035.16 696.786 1036.96 696.038C1038.77 695.29 1040.7 694.905 1042.66 694.905V694.905Z" fill="#2F2E41"/>
<path d="M1109.68 698.408H1097.42L1091.58 651.12H1109.68L1109.68 698.408Z" fill="#A0616A"/>
<path d="M1088.66 694.905H1112.3V709.791H1073.77C1073.77 707.837 1074.16 705.901 1074.91 704.095C1075.65 702.288 1076.75 700.647 1078.13 699.265C1079.51 697.882 1081.16 696.786 1082.96 696.038C1084.77 695.29 1086.7 694.905 1088.66 694.905Z" fill="#2F2E41"/>
<path d="M1063.1 674.585L1049.6 673.942C1048.45 673.887 1047.37 673.394 1046.57 672.564C1045.77 671.734 1045.32 670.63 1045.31 669.479C1041.76 614.56 1036.83 555.672 1044.37 532.922C1044.37 532.274 1044.5 531.633 1044.77 531.042C1045.04 530.451 1045.43 529.924 1045.92 529.498C1046.41 529.072 1046.98 528.757 1047.6 528.574C1048.22 528.391 1048.88 528.344 1049.52 528.437L1103.51 536.275C1104.58 536.424 1105.56 536.953 1106.26 537.765C1106.97 538.577 1107.36 539.617 1107.37 540.695C1114.26 567.631 1114.57 616.477 1114.31 667.229C1114.32 667.823 1114.2 668.412 1113.98 668.961C1113.75 669.511 1113.42 670.011 1113 670.433C1112.59 670.854 1112.09 671.189 1111.54 671.417C1110.99 671.645 1110.4 671.763 1109.81 671.763H1095.26C1094.19 671.767 1093.15 671.386 1092.33 670.688C1091.52 669.991 1090.98 669.023 1090.82 667.962L1081.84 610.895C1081.71 610.06 1081.28 609.301 1080.63 608.757C1079.98 608.214 1079.16 607.923 1078.32 607.939C1077.47 607.954 1076.66 608.275 1076.03 608.842C1075.41 609.409 1075.01 610.184 1074.91 611.023L1067.78 670.625C1067.65 671.717 1067.12 672.722 1066.29 673.453C1065.47 674.183 1064.41 674.588 1063.31 674.591C1063.24 674.591 1063.17 674.589 1063.1 674.585Z" fill="#2F2E41"/>
<path d="M1072.6 540.701C1060.7 534.089 1051.4 532.352 1046.92 531.905C1046.32 531.847 1045.74 531.669 1045.22 531.382C1044.69 531.094 1044.23 530.703 1043.86 530.232C1043.49 529.757 1043.21 529.211 1043.05 528.627C1042.89 528.042 1042.85 527.431 1042.93 526.83L1055.87 430.78C1056.62 425.16 1058.79 419.825 1062.18 415.282C1065.56 410.738 1070.06 407.138 1075.23 404.823C1080.24 402.52 1085.76 401.538 1091.25 401.969C1096.75 402.399 1102.04 404.229 1106.63 407.284C1107.07 407.579 1107.51 407.88 1107.93 408.187C1113.22 412.059 1117.24 417.408 1119.49 423.56C1121.74 429.713 1122.11 436.394 1120.57 442.76C1112.64 475.215 1109.91 528.422 1109.45 538.759C1109.41 539.64 1109.11 540.491 1108.59 541.204C1108.08 541.916 1107.36 542.459 1106.53 542.764C1101.65 544.538 1096.5 545.455 1091.3 545.475C1084.76 545.515 1078.32 543.87 1072.6 540.701Z" fill="#3F3D56"/>
<path d="M1083.42 391.781C1096.98 391.781 1107.98 380.784 1107.98 367.22C1107.98 353.655 1096.98 342.659 1083.42 342.659C1069.85 342.659 1058.86 353.655 1058.86 367.22C1058.86 380.784 1069.85 391.781 1083.42 391.781Z" fill="#A0616A"/>
<path d="M1100.8 386.651C1096.22 391.532 1087.71 388.912 1087.11 382.244C1087.06 381.726 1087.07 381.206 1087.12 380.688C1087.43 377.735 1089.14 375.053 1088.73 371.935C1088.64 371.159 1088.35 370.419 1087.89 369.786C1084.24 364.897 1075.67 371.973 1072.22 367.547C1070.11 364.833 1072.59 360.56 1070.97 357.526C1068.83 353.523 1062.49 355.498 1058.51 353.305C1054.09 350.866 1054.36 344.08 1057.27 339.952C1060.82 334.919 1067.04 332.233 1073.19 331.846C1079.34 331.459 1085.44 333.12 1091.18 335.357C1097.7 337.898 1104.17 341.411 1108.18 347.145C1113.06 354.118 1113.53 363.493 1111.09 371.646C1109.61 376.606 1104.54 382.666 1100.8 386.651Z" fill="#2F2E41"/>
<path d="M1120.25 410.53C1119.82 408.51 1116.13 405.75 1110.85 403.5C1102.36 400.063 1093.18 398.678 1084.06 399.46C1074.94 400.242 1066.13 403.168 1058.35 408C1057.81 408.029 1057.29 408.236 1056.88 408.588C1056.46 408.94 1056.18 409.419 1056.06 409.95L1038.3 488.5L1035.99 498.73L1034.46 505.5L1032.15 515.7L1030.92 521.15C1030.84 521.498 1030.84 521.86 1030.91 522.209C1030.98 522.559 1031.13 522.89 1031.34 523.178C1031.55 523.467 1031.82 523.708 1032.13 523.884C1032.44 524.06 1032.78 524.168 1033.14 524.2L1109.83 530.82C1109.9 530.82 1109.98 530.83 1110.05 530.83C1110.68 530.826 1111.29 530.583 1111.75 530.148C1112.21 529.714 1112.49 529.121 1112.53 528.49L1113.26 517.38L1114.04 505.5L1114.38 500.35L1115.15 488.5L1120.26 410.66V410.59L1120.25 410.53Z" fill="#DCCA5E"/>
<path d="M994.416 415.474C994.539 416.014 994.619 416.562 994.655 417.115L1037.61 441.897L1048.05 435.886L1059.19 450.458L1036.85 466.378L987.84 427.716C985.841 428.455 983.665 428.569 981.6 428.041C979.535 427.514 977.679 426.37 976.28 424.762C974.881 423.155 974.004 421.159 973.767 419.041C973.53 416.923 973.943 414.783 974.951 412.905C975.96 411.028 977.516 409.502 979.413 408.53C981.31 407.559 983.458 407.188 985.571 407.467C987.684 407.746 989.662 408.661 991.242 410.092C992.822 411.522 993.929 413.399 994.416 415.474H994.416Z" fill="#A0616A"/>
<path d="M1039.15 439.789C1039.08 439.122 1039.15 438.448 1039.38 437.815C1039.6 437.183 1039.96 436.609 1040.44 436.136L1062.3 414.267C1064.47 412.101 1067.36 410.813 1070.42 410.652C1073.48 410.492 1076.49 411.469 1078.87 413.397C1081.25 415.325 1082.84 418.066 1083.32 421.091C1083.8 424.117 1083.14 427.214 1081.47 429.784L1065.9 453.776C1065.25 454.776 1064.23 455.477 1063.06 455.725C1061.9 455.974 1060.68 455.749 1059.68 455.101L1041.17 443.092C1040.61 442.728 1040.14 442.243 1039.78 441.671C1039.43 441.099 1039.22 440.456 1039.15 439.789Z" fill="#3F3D56"/>
<path d="M1115.15 488.5L1114.38 500.35L1035.99 498.73L1038.3 488.5H1115.15Z" fill="#CCCCCC"/>
<path d="M1114.04 505.5L1113.26 517.38L1032.15 515.7L1034.46 505.5H1114.04Z" fill="#CCCCCC"/>
<path d="M1083.9 319.5C1075.59 319.501 1067.6 322.737 1061.63 328.523C1055.67 334.31 1052.18 342.191 1051.93 350.5H1045.9C1045.37 350.5 1044.86 350.711 1044.49 351.086C1044.11 351.461 1043.9 351.97 1043.9 352.5V360.5C1043.9 361.03 1044.11 361.539 1044.49 361.914C1044.86 362.289 1045.37 362.5 1045.9 362.5H1113.9C1114.43 362.5 1114.94 362.289 1115.31 361.914C1115.69 361.539 1115.9 361.03 1115.9 360.5V351.5C1115.9 347.298 1115.07 343.136 1113.46 339.254C1111.86 335.372 1109.5 331.844 1106.53 328.872C1103.56 325.901 1100.03 323.544 1096.15 321.936C1092.26 320.328 1088.1 319.5 1083.9 319.5V319.5Z" fill="#DCCA5E"/>
<path d="M428.936 604.807C368.768 604.807 310.463 583.945 263.953 545.775C217.443 507.605 185.607 454.49 173.87 395.479C162.132 336.468 171.218 275.212 199.581 222.15C227.943 169.087 273.827 127.501 329.415 104.476C385.002 81.4508 446.853 78.4123 504.429 95.8779C562.005 113.344 611.744 150.233 645.171 200.26C678.598 250.287 693.645 310.357 687.748 370.234C681.85 430.111 655.374 486.092 612.829 528.636C588.736 552.861 560.077 572.067 528.512 585.141C496.947 598.216 463.102 604.9 428.936 604.807V604.807ZM428.936 86.6781C286.639 86.6781 170.871 202.446 170.871 344.743C170.871 487.04 286.639 602.807 428.936 602.807C571.232 602.807 687 487.04 687 344.743C687 202.446 571.232 86.6781 428.936 86.6781V86.6781Z" fill="#CCCCCC"/>
<path d="M525.5 643.807V381.807H330.5V643.807H525.5Z" fill="#2F2E41"/>
<path d="M559 373.807H297V477.807H559V373.807Z" fill="#3F3D56"/>
<path d="M559 489.807H297V593.807H559V489.807Z" fill="#3F3D56"/>
<path d="M559 605.807H297V709.807H559V605.807Z" fill="#3F3D56"/>
<path d="M559 417.904H297V433.904H559V417.904Z" fill="#15BF4C"/>
<path d="M559 533.904H297V549.904H559V533.904Z" fill="#15BF4C"/>
<path d="M559 649.904H297V665.904H559V649.904Z" fill="#15BF4C"/>
<path d="M508 394.807C511.314 394.807 514 392.121 514 388.807C514 385.494 511.314 382.807 508 382.807C504.686 382.807 502 385.494 502 388.807C502 392.121 504.686 394.807 508 394.807Z" fill="#15BF4C"/>
<path d="M529 394.807C532.314 394.807 535 392.121 535 388.807C535 385.494 532.314 382.807 529 382.807C525.686 382.807 523 385.494 523 388.807C523 392.121 525.686 394.807 529 394.807Z" fill="#15BF4C"/>
<path d="M550 394.807C553.314 394.807 556 392.121 556 388.807C556 385.494 553.314 382.807 550 382.807C546.686 382.807 544 385.494 544 388.807C544 392.121 546.686 394.807 550 394.807Z" fill="#15BF4C"/>
<path d="M508 508.807C511.314 508.807 514 506.121 514 502.807C514 499.494 511.314 496.807 508 496.807C504.686 496.807 502 499.494 502 502.807C502 506.121 504.686 508.807 508 508.807Z" fill="#15BF4C"/>
<path d="M529 508.807C532.314 508.807 535 506.121 535 502.807C535 499.494 532.314 496.807 529 496.807C525.686 496.807 523 499.494 523 502.807C523 506.121 525.686 508.807 529 508.807Z" fill="#15BF4C"/>
<path d="M550 508.807C553.314 508.807 556 506.121 556 502.807C556 499.494 553.314 496.807 550 496.807C546.686 496.807 544 499.494 544 502.807C544 506.121 546.686 508.807 550 508.807Z" fill="#15BF4C"/>
<path d="M508 622.807C511.314 622.807 514 620.121 514 616.807C514 613.494 511.314 610.807 508 610.807C504.686 610.807 502 613.494 502 616.807C502 620.121 504.686 622.807 508 622.807Z" fill="#15BF4C"/>
<path d="M529 622.807C532.314 622.807 535 620.121 535 616.807C535 613.494 532.314 610.807 529 610.807C525.686 610.807 523 613.494 523 616.807C523 620.121 525.686 622.807 529 622.807Z" fill="#15BF4C"/>
<path d="M550 622.807C553.314 622.807 556 620.121 556 616.807C556 613.494 553.314 610.807 550 610.807C546.686 610.807 544 613.494 544 616.807C544 620.121 546.686 622.807 550 622.807Z" fill="#15BF4C"/>
<path d="M1122 731H0V710H1122V731Z" fill="#3F3D56"/>
<path d="M225.879 271.065V457.056C225.878 460.947 224.332 464.679 221.58 467.43C218.829 470.182 215.098 471.728 211.206 471.729H138.928C135.036 471.729 131.303 470.184 128.55 467.432C125.798 464.681 124.251 460.948 124.25 457.056V271.065C124.251 267.173 125.798 263.44 128.55 260.689C131.303 257.937 135.036 256.392 138.928 256.392H147.696C147.265 257.451 147.102 258.599 147.219 259.736C147.336 260.873 147.731 261.964 148.368 262.913C149.006 263.861 149.866 264.639 150.875 265.177C151.883 265.715 153.008 265.997 154.151 265.999H195.359C196.502 265.997 197.627 265.715 198.636 265.177C199.644 264.639 200.505 263.861 201.142 262.913C201.78 261.964 202.174 260.873 202.292 259.736C202.409 258.599 202.245 257.451 201.814 256.392H211.206C215.098 256.393 218.829 257.939 221.58 260.691C224.332 263.442 225.878 267.174 225.879 271.065V271.065Z" fill="#E6E6E6"/>
<path d="M221.064 291.91H129.064V419.91H221.064V291.91Z" fill="white"/>
<path d="M191.905 379.927H155.186V382.025H191.905V379.927Z" fill="#E6E6E6"/>
<path d="M211.966 387.632H155.149V389.73H211.966V387.632Z" fill="#15BF4C"/>
<path d="M199.737 394.89H155.149V396.988H199.737V394.89Z" fill="#E6E6E6"/>
<path d="M181.377 402.149H155.149V404.247H181.377V402.149Z" fill="#E6E6E6"/>
<path d="M194.491 409.407H155.149V411.506H194.491V409.407Z" fill="#E6E6E6"/>
<path d="M142.73 379.324H138.533V383.52H142.73V379.324Z" fill="#E6E6E6"/>
<path d="M142.73 386.582H138.533V390.779H142.73V386.582Z" fill="#15BF4C"/>
<path d="M142.73 393.841H138.533V398.038H142.73V393.841Z" fill="#E6E6E6"/>
<path d="M142.73 401.1H138.533V405.296H142.73V401.1Z" fill="#E6E6E6"/>
<path d="M142.73 408.358H138.533V412.555H142.73V408.358Z" fill="#E6E6E6"/>
<path d="M193.748 307.91H156.751V344.908H193.748V307.91Z" fill="#E6E6E6"/>
<path d="M550.994 0.139404H305.111V157.614H550.994V0.139404Z" fill="#E6E6E6"/>
<path d="M527.508 44.1953H323.647V121.231H527.508V44.1953Z" fill="white"/>
<path d="M409.716 57.5418H360.789V60.3376H409.716V57.5418Z" fill="#E6E6E6"/>
<path d="M436.446 67.8073H360.74V70.6031H436.446V67.8073Z" fill="#15BF4C"/>
<path d="M420.151 77.4789H360.74V80.2748H420.151V77.4789Z" fill="#E6E6E6"/>
<path d="M395.688 87.1506H360.74V89.9464H395.688V87.1506Z" fill="#E6E6E6"/>
<path d="M413.162 96.8222H360.74V99.618H413.162V96.8222Z" fill="#E6E6E6"/>
<path d="M344.193 56.7378H338.601V62.3294H344.193V56.7378Z" fill="#E6E6E6"/>
<path d="M344.193 66.4094H338.601V72.0011H344.193V66.4094Z" fill="#15BF4C"/>
<path d="M344.193 76.0811H338.601V81.6727H344.193V76.0811Z" fill="#E6E6E6"/>
<path d="M344.193 85.7527H338.601V91.3443H344.193V85.7527Z" fill="#E6E6E6"/>
<path d="M344.193 95.4243H338.601V101.016H344.193V95.4243Z" fill="#E6E6E6"/>
<path d="M517.504 53.8475H467.445V103.906H517.504V53.8475Z" fill="#E6E6E6"/>
<path d="M550.889 0H305.006V10.446H550.889V0Z" fill="#15BF4C"/>
<path d="M312.768 7.43743C313.926 7.43743 314.865 6.49864 314.865 5.34057C314.865 4.18251 313.926 3.24371 312.768 3.24371C311.61 3.24371 310.671 4.18251 310.671 5.34057C310.671 6.49864 311.61 7.43743 312.768 7.43743Z" fill="white"/>
<path d="M320.117 7.43743C321.275 7.43743 322.214 6.49864 322.214 5.34057C322.214 4.18251 321.275 3.24371 320.117 3.24371C318.959 3.24371 318.02 4.18251 318.02 5.34057C318.02 6.49864 318.959 7.43743 320.117 7.43743Z" fill="white"/>
<path d="M327.466 7.43743C328.624 7.43743 329.563 6.49864 329.563 5.34057C329.563 4.18251 328.624 3.24371 327.466 3.24371C326.308 3.24371 325.369 4.18251 325.369 5.34057C325.369 6.49864 326.308 7.43743 327.466 7.43743Z" fill="white"/>
<path d="M715.648 294.807H655.648V325.807H715.648V294.807Z" fill="#E6E6E6"/>
<path d="M715.648 405.807H655.648V436.807H715.648V405.807Z" fill="#E6E6E6"/>
<path d="M685.648 415.807C713.262 415.807 735.648 393.422 735.648 365.807C735.648 338.193 713.262 315.807 685.648 315.807C658.033 315.807 635.648 338.193 635.648 365.807C635.648 393.422 658.033 415.807 685.648 415.807Z" fill="#E6E6E6"/>
<path d="M685.648 404.807C707.187 404.807 724.648 387.347 724.648 365.807C724.648 344.268 707.187 326.807 685.648 326.807C664.109 326.807 646.648 344.268 646.648 365.807C646.648 387.347 664.109 404.807 685.648 404.807Z" fill="white"/>
<path d="M703.123 355.122H672.877V356.85H703.123V355.122Z" fill="#E2E2E2"/>
<path d="M719.648 361.468H672.846V363.196H719.648V361.468Z" fill="#15BF4C"/>
<path d="M709.575 367.447H672.846V369.175H709.575V367.447Z" fill="#E2E2E2"/>
<path d="M694.451 373.426H672.846V375.154H694.451V373.426Z" fill="#E2E2E2"/>
<path d="M705.254 379.405H672.846V381.133H705.254V379.405Z" fill="#E2E2E2"/>
<path d="M662.617 354.625H659.16V358.082H662.617V354.625Z" fill="#E2E2E2"/>
<path d="M662.617 360.604H659.16V364.061H662.617V360.604Z" fill="#15BF4C"/>
<path d="M662.617 366.583H659.16V370.04H662.617V366.583Z" fill="#E2E2E2"/>
<path d="M662.617 372.562H659.16V376.019H662.617V372.562Z" fill="#E2E2E2"/>
<path d="M662.617 380.541H659.16V383.998H662.617V380.541Z" fill="#E2E2E2"/>
</svg>
