<svg width="216" height="184" viewBox="0 0 216 184" fill="none" xmlns="http://www.w3.org/2000/svg">
<path d="M44.5951 104.424H69.7711V79.2482H44.595L44.5951 104.424ZM170.979 79.2482H145.803V104.424H170.979V79.2482ZM95.1989 104.424H120.375V79.2482H95.1989V104.424Z" fill="#CBF060"/>
<path d="M41.904 172.936C33.36 172.936 26.88 171.256 22.464 167.896C18.048 164.632 15.84 159.208 15.84 151.624C15.84 147.688 16.368 141.688 17.424 133.624C18.384 125.176 18.864 119.56 18.864 116.776C18.864 110.344 17.568 105.112 14.976 101.08C12.384 96.952 8.016 94.888 1.872 94.888V92.44C8.016 92.44 12.384 90.424 14.976 86.392C17.568 82.264 18.864 76.984 18.864 70.552C18.864 67.768 18.384 62.152 17.424 53.704C16.368 45.64 15.84 39.592 15.84 35.56C15.84 27.976 18.048 22.552 22.464 19.288C26.88 16.024 33.36 14.392 41.904 14.392V16.984C37.488 16.984 34.368 18.232 32.544 20.728C30.72 23.128 29.808 27.256 29.808 33.112C29.808 35.8 30.288 41.848 31.248 51.256C31.44 53.08 31.68 55.96 31.968 59.896C32.352 63.832 32.544 66.712 32.544 68.536C32.544 75.16 30.72 80.68 27.072 85.096C23.424 89.416 18.24 92.296 11.52 93.736C18.24 95.08 23.424 97.96 27.072 102.376C30.72 106.696 32.544 112.168 32.544 118.792C32.544 120.712 32.352 123.688 31.968 127.72C31.584 131.656 31.344 134.44 31.248 136.072C30.288 145.48 29.808 151.48 29.808 154.072C29.808 159.928 30.72 164.056 32.544 166.456C34.368 168.952 37.488 170.2 41.904 170.2V172.936Z" fill="#CBF060"/>
<path d="M174.096 170.936C182.64 170.936 189.12 169.256 193.536 165.896C197.952 162.632 200.16 157.208 200.16 149.624C200.16 145.688 199.632 139.688 198.576 131.624C197.616 123.176 197.136 117.56 197.136 114.776C197.136 108.344 198.432 103.112 201.024 99.08C203.616 94.952 207.984 92.888 214.128 92.888V90.44C207.984 90.44 203.616 88.424 201.024 84.392C198.432 80.264 197.136 74.984 197.136 68.552C197.136 65.768 197.616 60.152 198.576 51.704C199.632 43.64 200.16 37.592 200.16 33.56C200.16 25.976 197.952 20.552 193.536 17.288C189.12 14.024 182.64 12.392 174.096 12.392V14.984C178.512 14.984 181.632 16.232 183.456 18.728C185.28 21.128 186.192 25.256 186.192 31.112C186.192 33.8 185.712 39.848 184.752 49.256C184.56 51.08 184.32 53.96 184.032 57.896C183.648 61.832 183.456 64.712 183.456 66.536C183.456 73.16 185.28 78.68 188.928 83.096C192.576 87.416 197.76 90.296 204.48 91.736C197.76 93.08 192.576 95.96 188.928 100.376C185.28 104.696 183.456 110.168 183.456 116.792C183.456 118.712 183.648 121.688 184.032 125.72C184.416 129.656 184.656 132.44 184.752 134.072C185.712 143.48 186.192 149.48 186.192 152.072C186.192 157.928 185.28 162.056 183.456 164.456C181.632 166.952 178.512 168.2 174.096 168.2V170.936Z" fill="#CBF060"/>
</svg>
