<svg width="819" height="183" viewBox="0 0 819 183" fill="none" xmlns="http://www.w3.org/2000/svg">
<path d="M250 146.308L311.933 84.564L250 22.819L268.882 4L349.697 84.564L268.882 165.127L250 146.308Z" fill="#E3DF6B"/>
<path d="M195 93.176H220.176V68H195L195 93.176ZM245.604 93.176H270.78V68H245.604V93.176Z" fill="#070707"/>
<path d="M76.0001 93.176H101.176V68H76L76.0001 93.176ZM126.604 93.176H151.78V68H126.604V93.176Z" fill="#070707"/>
<path d="M99.697 22.819L37.764 84.563L99.697 146.308L80.815 165.127L0 84.563L80.815 4L99.697 22.819Z" fill="#E3DF6B"/>
<path d="M404.264 51.24C404.264 46.344 403.592 42.744 402.248 40.44C400.904 38.04 398.216 36.84 394.184 36.84H391.304V33.96H428.744C437.96 33.96 446.264 35.928 453.656 39.864C461.048 43.8 464.744 51.432 464.744 62.76C464.744 70.248 462.824 76.008 458.984 80.04C455.144 84.072 450.824 86.76 446.024 88.104C441.32 89.448 437 90.12 433.064 90.12H417.224V129H404.264V51.24ZM428.024 85.08C431.096 85.08 434.36 84.312 437.816 82.776C441.272 81.144 444.2 78.6 446.6 75.144C449.096 71.688 450.344 67.32 450.344 62.04C450.344 56.76 449.096 52.392 446.6 48.936C444.2 45.48 441.272 42.984 437.816 41.448C434.36 39.816 431.096 39 428.024 39C424.664 39 421.064 39.48 417.224 40.44V83.64C421.064 84.6 424.664 85.08 428.024 85.08ZM479.973 78.6C479.973 73.704 479.301 70.104 477.957 67.8C476.613 65.4 473.925 64.2 469.893 64.2H468.453V61.32H479.973C483.621 61.32 486.357 61.848 488.181 62.904C490.101 63.864 491.445 65.496 492.213 67.8H492.933C494.661 65.592 496.965 63.72 499.845 62.184C502.821 60.648 506.277 59.88 510.213 59.88C514.053 59.88 516.933 60.6 518.853 62.04C520.485 63.288 522.165 65.448 523.893 68.52L518.133 72.84C517.077 71.4 515.541 70.344 513.525 69.672C511.509 68.904 509.205 68.52 506.613 68.52C503.733 68.52 501.093 69.192 498.693 70.536C496.293 71.784 494.373 73.512 492.933 75.72V129H479.973V78.6ZM552.184 130.44C549.112 130.44 545.992 129.816 542.824 128.568C539.656 127.224 536.92 125.064 534.616 122.088C532.408 119.112 531.304 115.176 531.304 110.28C531.304 102.984 534.664 97.8 541.384 94.728C548.2 91.656 557.08 90.12 568.023 90.12H572.344C572.344 80.712 571.048 74.28 568.456 70.824C565.864 67.368 562.12 65.64 557.224 65.64C552.904 65.64 549.448 66.552 546.855 68.376C544.264 70.2 542.44 73.368 541.384 77.88H534.904C534.904 74.616 535.096 72.072 535.48 70.248C535.864 68.328 536.872 66.552 538.504 64.92C540.232 63.192 543.064 61.944 547 61.176C551.032 60.312 555.4 59.88 560.104 59.88C567.88 59.88 574.024 61.992 578.536 66.216C583.048 70.344 585.304 78.312 585.304 90.12V129H578.104L573.064 122.52H572.344C570.616 124.728 568.072 126.6 564.712 128.136C561.352 129.672 557.176 130.44 552.184 130.44ZM558.664 123.96C561.832 123.96 564.472 123.192 566.584 121.656C568.696 120.12 570.616 118.008 572.344 115.32V95.88H568.023C560.92 95.88 555.304 97.224 551.176 99.912C547.048 102.504 544.984 105.96 544.984 110.28C544.984 114.696 546.28 118.104 548.872 120.504C551.56 122.808 554.824 123.96 558.664 123.96ZM627.992 130.44C616.952 130.44 609.512 128.52 605.672 124.68C604.04 123.048 603.032 121.224 602.648 119.208C602.264 117.096 602.072 113.88 602.072 109.56H604.952C605.816 114.36 607.88 118.104 611.144 120.792C614.504 123.384 619.16 124.68 625.112 124.68C630.392 124.68 634.328 123.768 636.92 121.944C639.608 120.12 640.952 117.672 640.952 114.6C640.952 111.816 639.896 109.416 637.784 107.4C635.768 105.384 632.504 103.464 627.992 101.64L619.352 98.04C613.592 95.736 609.272 93.048 606.392 89.976C603.512 86.904 602.072 83.112 602.072 78.6C602.072 72.744 604.28 68.184 608.696 64.92C613.112 61.56 618.824 59.88 625.832 59.88C636.392 59.88 643.592 61.8 647.432 65.64C649.064 67.272 650.072 69.096 650.456 71.112C650.84 73.128 651.032 76.344 651.032 80.76H648.152C647.384 75.96 645.368 72.264 642.104 69.672C638.84 66.984 634.376 65.64 628.712 65.64C624.2 65.64 620.648 66.6 618.056 68.52C615.56 70.344 614.312 72.744 614.312 75.72C614.312 80.712 618.152 84.792 625.832 87.96L634.472 91.56C641 94.248 645.752 97.128 648.728 100.2C651.704 103.176 653.192 107.016 653.192 111.72C653.192 117.576 650.84 122.184 646.136 125.544C641.432 128.808 635.384 130.44 627.992 130.44ZM675.121 131.016C673.009 131.016 671.185 130.248 669.649 128.712C668.113 127.176 667.345 125.304 667.345 123.096C667.345 120.984 668.113 119.16 669.649 117.624C671.185 116.088 673.009 115.32 675.121 115.32C677.329 115.32 679.153 116.088 680.593 117.624C682.129 119.16 682.897 120.984 682.897 123.096C682.897 125.304 682.129 127.176 680.593 128.712C679.057 130.248 677.233 131.016 675.121 131.016Z" fill="black"/>
<path d="M708.922 52.68C706.714 52.68 704.794 51.768 703.162 49.944C701.626 48.12 700.858 45.96 700.858 43.464C700.858 41.448 701.434 39.864 702.586 38.712C703.834 37.56 705.466 36.984 707.482 36.984C709.69 36.984 711.562 37.896 713.098 39.72C714.73 41.544 715.546 43.704 715.546 46.2C715.546 48.216 714.922 49.8 713.674 50.952C712.522 52.104 710.938 52.68 708.922 52.68ZM703.45 78.6C703.45 73.704 702.778 70.104 701.434 67.8C700.09 65.4 697.402 64.2 693.37 64.2H690.49V61.32H703.45C707.002 61.32 709.642 61.8 711.37 62.76C713.194 63.624 714.49 65.256 715.258 67.656C716.026 70.056 716.41 73.704 716.41 78.6V129H703.45V78.6ZM759.047 130.44C750.695 130.44 744.263 127.128 739.751 120.504C735.335 113.88 733.127 105.432 733.127 95.16C733.127 84.888 735.431 76.44 740.039 69.816C744.743 63.192 751.559 59.88 760.487 59.88C764.135 59.88 767.351 60.264 770.135 61.032C772.919 61.8 775.703 62.856 778.487 64.2V51.24C778.487 46.344 777.815 42.744 776.471 40.44C775.127 38.04 772.439 36.84 768.407 36.84H765.527V33.96H778.487C782.039 33.96 784.679 34.44 786.407 35.4C788.231 36.264 789.527 37.896 790.295 40.296C791.063 42.696 791.447 46.344 791.447 51.24V129H784.247L779.207 122.52H778.487C776.375 124.92 773.879 126.84 770.999 128.28C768.215 129.72 764.231 130.44 759.047 130.44ZM763.367 124.68C767.303 124.68 770.279 123.96 772.295 122.52C774.311 121.08 776.375 118.92 778.487 116.04V69.96C775.607 68.616 773.111 67.56 770.999 66.792C768.887 66.024 766.823 65.64 764.807 65.64C758.663 65.64 754.103 68.328 751.127 73.704C748.247 79.08 746.807 86.232 746.807 95.16C746.807 103.992 748.199 111.144 750.983 116.616C753.767 121.992 757.895 124.68 763.367 124.68Z" fill="#E3DF6B"/>
</svg>
