<svg width="1096" height="534" viewBox="0 0 1096 534" fill="none" xmlns="http://www.w3.org/2000/svg">
<path d="M158 533.732C245.261 533.732 316 528.359 316 521.732C316 515.104 245.261 509.732 158 509.732C70.739 509.732 0 515.104 0 521.732C0 528.359 70.739 533.732 158 533.732Z" fill="#E6E6E6"/>
<path d="M120.772 104.42C148.269 92.7242 182.517 100.134 215.963 105.277C216.274 99.0491 220.047 91.4693 216.095 87.1243C211.294 81.8455 211.736 76.299 214.625 70.7205C222.013 56.4555 211.428 41.2768 200.741 28.6558C198.332 25.8176 195.288 23.5875 191.855 22.1467C188.422 20.706 184.698 20.0952 180.985 20.364L161.188 21.7781C156.37 22.1222 151.773 23.9294 148.011 26.9579C144.248 29.9863 141.5 34.0915 140.135 38.7243V38.7243C135.408 45.1535 132.878 51.5648 134.471 57.9428C127.39 62.7817 126.2 68.6226 129.382 75.2072C132.08 79.3532 132.051 83.3888 129.259 87.3128C125.593 92.3156 122.784 97.8939 120.949 103.819L120.772 104.42Z" fill="#2F2E41"/>
<path d="M774.209 458.963H213.791C208.807 458.963 204.028 456.983 200.504 453.459C196.98 449.935 195 445.156 195 440.172C398.151 416.562 597.485 416.562 793 440.172C793 445.156 791.02 449.935 787.496 453.459C783.972 456.983 779.193 458.963 774.209 458.963Z" fill="#2F2E41"/>
<path d="M793 441.277L195 440.172L264.306 323.556L264.638 323.004V65.9963C264.637 62.8768 265.252 59.7878 266.445 56.9057C267.639 54.0236 269.389 51.4048 271.595 49.199C273.8 46.9932 276.419 45.2434 279.301 44.0498C282.183 42.8561 285.272 42.2419 288.392 42.2421H696.292C699.412 42.2419 702.501 42.8561 705.383 44.0498C708.265 45.2434 710.883 46.9932 713.089 49.199C715.295 51.4048 717.045 54.0236 718.239 56.9057C719.432 59.7878 720.046 62.8768 720.046 65.9963V324.772L793 441.277Z" fill="#3F3D56"/>
<path d="M287.85 58.8225C285.799 58.8248 283.832 59.6408 282.382 61.0914C280.931 62.5419 280.115 64.5086 280.113 66.5601V300.896C280.115 302.948 280.931 304.915 282.382 306.365C283.832 307.816 285.799 308.632 287.85 308.634H700.15C702.201 308.632 704.168 307.816 705.618 306.365C707.069 304.914 707.885 302.948 707.887 300.896V66.5601C707.885 64.5087 707.069 62.542 705.618 61.0915C704.168 59.6409 702.201 58.8249 700.15 58.8225H287.85Z" fill="white"/>
<path d="M289.578 339.584C288.944 339.585 288.324 339.767 287.79 340.109C287.256 340.451 286.831 340.939 286.565 341.514L265.21 387.939C264.977 388.445 264.876 389 264.914 389.555C264.953 390.11 265.13 390.646 265.43 391.114C265.73 391.582 266.143 391.968 266.631 392.235C267.119 392.501 267.666 392.641 268.222 392.641H717.314C717.879 392.641 718.435 392.497 718.929 392.222C719.423 391.946 719.838 391.549 720.135 391.069C720.432 390.588 720.601 390.039 720.626 389.474C720.652 388.909 720.532 388.348 720.279 387.842L697.067 341.417C696.793 340.865 696.37 340.401 695.846 340.077C695.322 339.753 694.718 339.582 694.102 339.584H289.578Z" fill="#2F2E41"/>
<path d="M492.342 54.9538C495.089 54.9538 497.316 52.7268 497.316 49.9797C497.316 47.2325 495.089 45.0056 492.342 45.0056C489.595 45.0056 487.368 47.2325 487.368 49.9797C487.368 52.7268 489.595 54.9538 492.342 54.9538Z" fill="white"/>
<path d="M448.2 401.484C447.471 401.485 446.763 401.726 446.184 402.169C445.605 402.613 445.189 403.234 444.998 403.938L439.641 423.834C439.509 424.326 439.491 424.841 439.59 425.341C439.689 425.84 439.901 426.31 440.211 426.714C440.521 427.118 440.919 427.445 441.375 427.671C441.832 427.896 442.334 428.013 442.843 428.013H544.717C545.246 428.013 545.767 427.887 546.237 427.644C546.706 427.402 547.112 427.051 547.418 426.62C547.725 426.189 547.924 425.692 547.999 425.168C548.074 424.645 548.023 424.112 547.85 423.612L540.963 403.715C540.737 403.064 540.314 402.499 539.752 402.099C539.191 401.7 538.519 401.485 537.829 401.484H448.2Z" fill="#2F2E41"/>
<path d="M720.046 319.135V323.556H264.306L264.649 323.004V319.135H720.046Z" fill="#2F2E41"/>
<path d="M707.335 154.75C750.068 154.75 784.71 120.108 784.71 77.3752C784.71 34.6421 750.068 0 707.335 0C664.601 0 629.959 34.6421 629.959 77.3752C629.959 120.108 664.601 154.75 707.335 154.75Z" fill="#6C63FF"/>
<path d="M739.39 111.089H675.279C674.107 111.088 672.983 110.621 672.154 109.792C671.325 108.964 670.859 107.84 670.858 106.667V67.9797C670.859 66.8074 671.325 65.6835 672.154 64.8546C672.983 64.0257 674.107 63.5595 675.279 63.5582H739.39C740.562 63.5595 741.686 64.0257 742.515 64.8546C743.344 65.6835 743.81 66.8074 743.811 67.9797V106.667C743.81 107.84 743.344 108.964 742.515 109.792C741.686 110.621 740.562 111.088 739.39 111.089ZM675.279 67.9797V106.667H739.393L739.39 67.9797L675.279 67.9797Z" fill="white"/>
<path d="M727.231 67.9797H687.438V50.2939C687.438 37.4841 695.806 28.1867 707.335 28.1867C718.863 28.1867 727.231 37.4841 727.231 50.2939L727.231 67.9797ZM691.859 63.5583H722.81V50.2939C722.81 39.8809 716.446 32.6082 707.335 32.6082C698.223 32.6082 691.86 39.881 691.86 50.2939L691.859 63.5583Z" fill="white"/>
<path d="M707.335 90.6395C709.776 90.6395 711.756 88.66 711.756 86.2181C711.756 83.7762 709.776 81.7967 707.335 81.7967C704.893 81.7967 702.913 83.7762 702.913 86.2181C702.913 88.66 704.893 90.6395 707.335 90.6395Z" fill="white"/>
<path d="M263.522 190.328L204.619 221.644L203.873 195.547C223.099 192.338 241.39 186.75 258.303 177.653L264.463 162.433C265.134 160.774 266.225 159.319 267.629 158.209C269.033 157.1 270.701 156.375 272.47 156.105C274.238 155.834 276.047 156.029 277.717 156.669C279.388 157.309 280.864 158.372 282 159.755V159.755C283.661 161.778 284.492 164.356 284.323 166.969C284.154 169.581 282.999 172.031 281.091 173.824L263.522 190.328Z" fill="#FFB8B8"/>
<path d="M119.598 371.133C119.168 369.557 119.077 367.908 119.33 366.294C119.584 364.68 120.176 363.138 121.067 361.77L134.007 341.912C137.067 337.215 141.763 333.823 147.184 332.393C152.604 330.962 158.363 331.597 163.342 334.173V334.173C157.904 343.429 158.662 351.549 165.22 358.606C155.039 363.576 145.63 369.991 137.284 377.651C135.76 378.69 134.01 379.35 132.18 379.575C130.35 379.801 128.492 379.586 126.762 378.948C125.032 378.31 123.479 377.268 122.233 375.909C120.987 374.549 120.083 372.912 119.598 371.133V371.133Z" fill="#2F2E41"/>
<path d="M266.205 345.168C264.247 348.432 261.483 351.137 258.178 353.025C254.874 354.912 251.139 355.919 247.334 355.948L161.374 356.599L157.646 334.976L195.672 323.792L163.61 299.187L198.654 258.179L262.304 317.503C266.024 320.97 268.441 325.61 269.151 330.645C269.861 335.681 268.821 340.808 266.205 345.168V345.168Z" fill="#2F2E41"/>
<path d="M147.953 493.045H127.821C109.746 369.147 91.3474 244.903 145.716 198.53L209.838 208.968L201.636 263.398L165.847 304.406L147.953 493.045Z" fill="#2F2E41"/>
<path d="M165.649 521.112C164.073 521.541 162.424 521.633 160.81 521.38C159.197 521.127 157.655 520.535 156.286 519.643L134.427 516.705C129.73 513.645 126.338 508.949 124.907 503.528C123.477 498.108 124.111 492.35 126.686 487.37C135.943 492.808 144.063 492.049 151.12 485.491C156.106 495.558 164.321 494.944 172.167 503.426C173.205 504.949 173.865 506.699 174.091 508.529C174.316 510.36 174.101 512.217 173.464 513.948C172.826 515.678 171.784 517.231 170.425 518.477C169.066 519.723 167.428 520.626 165.649 521.112V521.112Z" fill="#2F2E41"/>
<path d="M195.672 115.767L158.391 106.82C164.583 94.1461 165.093 80.0438 162.119 65.0659L187.47 64.3203C188.264 82.9457 190.667 100.347 195.672 115.767Z" fill="#FFB8B8"/>
<path d="M205.918 231.418C178.779 249.911 159.603 232.051 144.97 204.495C147.004 187.633 143.711 167.454 137.614 145.528C134.902 135.858 135.914 125.521 140.451 116.561C144.988 107.6 152.719 100.666 162.119 97.1271V97.1271L194.18 110.548C221.404 132.739 226.762 156.775 216.549 182.127L205.918 231.418Z" fill="#6C63FF"/>
<path d="M127.821 134.408L97.9969 150.065L150.935 181.381L158.301 199.55C158.793 200.763 159.032 202.063 159.005 203.372C158.978 204.68 158.684 205.969 158.143 207.16C157.601 208.351 156.822 209.42 155.854 210.3C154.886 211.181 153.749 211.855 152.512 212.281V212.281C151.106 212.766 149.606 212.919 148.131 212.728C146.656 212.536 145.245 212.006 144.009 211.179C142.773 210.351 141.745 209.248 141.006 207.957C140.268 206.666 139.838 205.222 139.75 203.737L139.005 191.074L71.7216 168.87C69.4546 168.122 67.3876 166.868 65.6771 165.203C63.9666 163.537 62.6575 161.505 61.8489 159.259V159.259C60.6703 155.985 60.6103 152.412 61.6783 149.101C62.7464 145.789 64.8822 142.925 67.7515 140.956L121.856 103.838L127.821 134.408Z" fill="#FFB8B8"/>
<path d="M157.646 137.39C145.207 131.939 133.896 137.86 119.62 142.609L117.383 103.092C131.559 95.5363 145.075 93.4992 157.646 99.364L157.646 137.39Z" fill="#6C63FF"/>
<path d="M172.525 83.8946C185.67 83.8946 196.327 73.2381 196.327 60.0925C196.327 46.947 185.67 36.2904 172.525 36.2904C159.379 36.2904 148.723 46.947 148.723 60.0925C148.723 73.2381 159.379 83.8946 172.525 83.8946Z" fill="#FFB8B8"/>
<path d="M201 57.0893C177.434 59.3974 159.477 55.5432 148 44.5692V35.7315H199L201 57.0893Z" fill="#2F2E41"/>
<path d="M871.89 163.776C870.484 164.189 868.986 164.247 867.549 163.944C866.111 163.642 864.784 162.991 863.701 162.054C862.617 161.118 861.817 159.932 861.379 158.613C860.941 157.295 860.882 155.892 861.207 154.545C866.085 135.529 884.633 89.0245 952.207 69.4647C981.477 60.9921 1009.55 60.8475 1035.6 69.0316C1057.04 75.7366 1071.27 86.2291 1078.08 91.3005C1079.81 92.5826 1080.92 94.456 1081.18 96.5086C1081.43 98.5611 1080.81 100.625 1079.44 102.245C1079.42 102.265 1079.41 102.285 1079.39 102.305C1077.98 103.931 1075.95 104.974 1073.74 105.21C1071.52 105.446 1069.29 104.856 1067.53 103.567C1055.2 94.4612 1017.77 66.7995 957.116 84.3569C897.89 101.501 881.801 141.601 877.628 158.007C877.311 159.362 876.612 160.613 875.602 161.628C874.592 162.643 873.31 163.385 871.89 163.776H871.89Z" fill="#6C63FF"/>
<path d="M1056.07 271.485C1055.4 271.688 1054.7 271.811 1054 271.85C1001.21 274.514 967.618 233.418 966.239 231.706L965.984 231.31C965.141 230.086 944.819 201.112 953.766 178.102C957.875 167.582 966.963 160.198 980.855 156.177C993.776 152.437 1004.35 153.543 1013.35 159.564C1020.73 164.47 1025.45 171.786 1030.04 178.851C1039.57 193.52 1045.41 200.983 1063.53 196.677C1071.49 194.785 1075.2 188.957 1076.9 184.416C1081.47 172.062 1077.42 155.219 1066.71 142.476C1052.86 125.944 1014.13 98.486 966.335 112.32C945.926 118.228 929.223 129.87 918.037 145.9C908.771 159.204 903.384 175.726 903.266 191.135C903.08 219.825 928.173 257.57 928.411 257.912C928.989 258.778 929.379 259.742 929.559 260.749C929.74 261.756 929.706 262.787 929.461 263.782C929.216 264.777 928.764 265.717 928.132 266.549C927.499 267.381 926.698 268.087 925.774 268.629C925.748 268.644 925.722 268.659 925.697 268.674C923.803 269.78 921.521 270.144 919.344 269.687C917.166 269.231 915.268 267.99 914.058 266.233C912.925 264.507 886.131 224.262 886.347 191.103C886.648 155.162 909.956 112.267 961.408 97.3742C985.19 90.4903 1010.18 91.6473 1033.7 100.683C1051.93 107.73 1068.8 119.394 1079.96 132.713C1094.2 149.715 1099.22 171.969 1092.74 189.338C1088.41 200.918 1079.46 208.908 1067.57 211.764C1036.56 219.155 1024.42 200.547 1015.56 186.974C1006.46 173.059 1001.43 166.535 985.708 171.086C977.076 173.584 971.757 177.588 969.521 183.341C966.477 191.205 969.361 201.285 972.317 208.351C972.348 208.425 972.379 208.499 972.41 208.572C976.199 217.554 982.113 225.613 989.706 232.145C1001.87 242.67 1024.45 257.675 1053.23 256.228C1055.43 256.1 1057.59 256.796 1059.25 258.163C1060.9 259.53 1061.9 261.457 1062.04 263.519C1062.04 263.543 1062.04 263.569 1062.05 263.593C1062.11 265.342 1061.56 267.061 1060.48 268.488C1059.4 269.915 1057.85 270.968 1056.07 271.485Z" fill="#6C63FF"/>
<path d="M992.052 286.26C990.952 286.579 989.793 286.685 988.648 286.573C987.502 286.461 986.393 286.132 985.387 285.607C959.349 271.784 941.071 253.191 927.909 227.132L927.856 226.972C919.56 209.597 914.567 183.052 925.582 160.616C933.714 144.061 948.978 132.425 970.874 126.087C996.771 118.591 1020.89 124.11 1040.68 141.971C1049.68 150.215 1057 159.929 1062.27 170.635C1063.12 172.561 1063.11 174.72 1062.27 176.646C1061.43 178.571 1059.81 180.107 1057.76 180.922C1055.72 181.738 1053.41 181.766 1051.35 181.002C1049.28 180.237 1047.62 178.742 1046.72 176.838C1042.25 167.903 1036.08 159.806 1028.51 152.945C1013.26 139.345 995.524 135.324 975.743 141.05C958.65 145.998 946.88 154.745 940.854 167.051C932.165 184.765 936.639 206.884 943.13 220.497C954.736 243.544 970.834 259.892 993.751 272.036C994.697 272.537 995.529 273.207 996.2 274.009C996.87 274.81 997.365 275.728 997.657 276.709C997.949 277.689 998.032 278.715 997.901 279.726C997.77 280.737 997.428 281.713 996.893 282.6C996.873 282.636 996.851 282.671 996.829 282.705C995.762 284.404 994.059 285.671 992.052 286.26Z" fill="#6C63FF"/>
<path d="M680.627 198.993L660.172 179.902L639.717 198.993L633.482 193.172L660.172 168.261L686.862 193.172L680.627 198.993Z" fill="#6C63FF"/>
<path d="M661.631 253.511V245.75H653.291V253.511H661.631ZM653.291 214.553V222.313H661.631V214.553H653.291ZM661.631 237.912V230.151H653.291V237.912H661.631Z" fill="#6C63FF"/>
<path d="M680.418 264.026L659.963 283.137L639.508 264.046L633.274 269.866L659.963 294.758L686.653 269.847L680.418 264.026Z" fill="#6C63FF"/>
</svg>
