<svg width="793" height="534" viewBox="0 0 793 534" fill="none" xmlns="http://www.w3.org/2000/svg">
<path d="M158 533.732C245.261 533.732 316 528.359 316 521.732C316 515.104 245.261 509.732 158 509.732C70.739 509.732 0 515.104 0 521.732C0 528.359 70.739 533.732 158 533.732Z" fill="#E6E6E6"/>
<path d="M120.772 104.42C148.269 92.7243 182.517 100.134 215.963 105.277C216.274 99.0491 220.047 91.4693 216.095 87.1243C211.294 81.8455 211.736 76.299 214.625 70.7205C222.013 56.4555 211.428 41.2768 200.741 28.6558C198.332 25.8176 195.288 23.5875 191.855 22.1467C188.422 20.706 184.698 20.0952 180.985 20.364L161.188 21.7781C156.37 22.1222 151.773 23.9294 148.011 26.9579C144.248 29.9863 141.5 34.0915 140.135 38.7243C135.408 45.1535 132.878 51.5648 134.471 57.9428C127.39 62.7817 126.2 68.6226 129.382 75.2072C132.08 79.3532 132.051 83.3888 129.259 87.3128C125.593 92.3156 122.784 97.8939 120.949 103.819L120.772 104.42Z" fill="#2F2E41"/>
<path d="M774.209 458.963H213.791C208.807 458.963 204.028 456.983 200.504 453.459C196.98 449.935 195 445.156 195 440.172C398.151 416.562 597.485 416.562 793 440.172C793 445.156 791.02 449.935 787.496 453.459C783.972 456.983 779.193 458.963 774.209 458.963Z" fill="#2F2E41"/>
<path d="M793 441.277L195 440.172L264.306 323.556L264.638 323.004V65.9963C264.637 62.8768 265.252 59.7878 266.445 56.9057C267.639 54.0236 269.389 51.4048 271.595 49.199C273.8 46.9932 276.419 45.2434 279.301 44.0498C282.183 42.8561 285.272 42.2419 288.392 42.2421H696.292C699.411 42.2419 702.501 42.8561 705.383 44.0498C708.265 45.2434 710.883 46.9932 713.089 49.199C715.295 51.4048 717.045 54.0236 718.239 56.9057C719.432 59.7878 720.046 62.8768 720.046 65.9963V324.772L793 441.277Z" fill="#3F3D56"/>
<path d="M287.85 58.8225C285.799 58.8248 283.832 59.6408 282.382 61.0914C280.931 62.5419 280.115 64.5086 280.113 66.5601V300.896C280.115 302.948 280.931 304.915 282.382 306.365C283.832 307.816 285.799 308.632 287.85 308.634H700.15C702.201 308.632 704.168 307.816 705.618 306.365C707.069 304.914 707.885 302.948 707.887 300.896V66.5601C707.885 64.5087 707.069 62.542 705.618 61.0915C704.168 59.6409 702.201 58.8249 700.15 58.8225H287.85Z" fill="white"/>
<path d="M289.578 339.584C288.944 339.585 288.324 339.767 287.79 340.109C287.256 340.451 286.831 340.939 286.565 341.514L265.21 387.939C264.977 388.445 264.876 389 264.914 389.555C264.953 390.11 265.13 390.646 265.43 391.114C265.73 391.582 266.143 391.968 266.631 392.235C267.119 392.501 267.666 392.641 268.222 392.641H717.314C717.879 392.641 718.435 392.497 718.929 392.222C719.423 391.946 719.838 391.549 720.135 391.069C720.432 390.588 720.601 390.039 720.626 389.474C720.652 388.909 720.532 388.348 720.279 387.842L697.067 341.417C696.793 340.865 696.37 340.401 695.846 340.077C695.322 339.753 694.718 339.582 694.102 339.584H289.578Z" fill="#2F2E41"/>
<path d="M492.342 54.9538C495.089 54.9538 497.316 52.7268 497.316 49.9797C497.316 47.2325 495.089 45.0056 492.342 45.0056C489.595 45.0056 487.368 47.2325 487.368 49.9797C487.368 52.7268 489.595 54.9538 492.342 54.9538Z" fill="white"/>
<path d="M448.2 401.484C447.471 401.485 446.763 401.726 446.184 402.169C445.605 402.613 445.189 403.234 444.998 403.938L439.641 423.834C439.509 424.326 439.491 424.841 439.59 425.341C439.689 425.84 439.901 426.31 440.211 426.714C440.521 427.118 440.919 427.445 441.375 427.671C441.832 427.896 442.334 428.013 442.843 428.013H544.717C545.246 428.013 545.767 427.887 546.237 427.644C546.706 427.402 547.112 427.051 547.418 426.62C547.725 426.189 547.924 425.692 547.999 425.168C548.074 424.645 548.023 424.112 547.85 423.612L540.963 403.715C540.737 403.064 540.314 402.499 539.752 402.099C539.191 401.7 538.519 401.485 537.829 401.484H448.2Z" fill="#2F2E41"/>
<path d="M720.046 319.135V323.556H264.306L264.649 323.004V319.135H720.046Z" fill="#2F2E41"/>
<path d="M707.335 154.75C750.068 154.75 784.71 120.108 784.71 77.3752C784.71 34.6421 750.068 0 707.335 0C664.601 0 629.959 34.6421 629.959 77.3752C629.959 120.108 664.601 154.75 707.335 154.75Z" fill="#6C63FF"/>
<path d="M739.39 111.089H675.279C674.107 111.088 672.983 110.621 672.154 109.792C671.325 108.964 670.859 107.84 670.858 106.667V67.9797C670.859 66.8074 671.325 65.6835 672.154 64.8546C672.983 64.0257 674.107 63.5595 675.279 63.5582H739.39C740.562 63.5595 741.686 64.0257 742.515 64.8546C743.344 65.6835 743.81 66.8074 743.811 67.9797V106.667C743.81 107.84 743.344 108.964 742.515 109.792C741.686 110.621 740.562 111.088 739.39 111.089ZM675.279 67.9797V106.667H739.393L739.39 67.9797L675.279 67.9797Z" fill="white"/>
<path d="M727.231 67.9797H687.438V50.2939C687.438 37.4841 695.806 28.1867 707.335 28.1867C718.863 28.1867 727.231 37.4841 727.231 50.2939L727.231 67.9797ZM691.859 63.5583H722.81V50.2939C722.81 39.8809 716.446 32.6082 707.335 32.6082C698.223 32.6082 691.86 39.881 691.86 50.2939L691.859 63.5583Z" fill="white"/>
<path d="M707.335 90.6395C709.776 90.6395 711.756 88.66 711.756 86.2181C711.756 83.7762 709.776 81.7967 707.335 81.7967C704.893 81.7967 702.913 83.7762 702.913 86.2181C702.913 88.66 704.893 90.6395 707.335 90.6395Z" fill="white"/>
<path d="M263.522 190.328L204.619 221.644L203.873 195.547C223.099 192.338 241.39 186.75 258.303 177.653L264.463 162.433C265.134 160.774 266.225 159.319 267.629 158.209C269.033 157.1 270.701 156.375 272.47 156.105C274.238 155.834 276.047 156.029 277.717 156.669C279.388 157.309 280.864 158.372 282 159.755C283.661 161.778 284.492 164.356 284.323 166.969C284.154 169.581 282.999 172.031 281.091 173.824L263.522 190.328Z" fill="#FFB8B8"/>
<path d="M119.598 371.133C119.168 369.557 119.077 367.908 119.33 366.294C119.584 364.68 120.176 363.138 121.067 361.77L134.007 341.912C137.067 337.215 141.763 333.823 147.184 332.393C152.604 330.962 158.363 331.597 163.342 334.173C157.904 343.429 158.662 351.549 165.22 358.606C155.039 363.576 145.63 369.991 137.284 377.651C135.76 378.69 134.01 379.35 132.18 379.575C130.35 379.801 128.492 379.586 126.762 378.948C125.032 378.31 123.479 377.268 122.233 375.909C120.987 374.549 120.083 372.912 119.598 371.133Z" fill="#2F2E41"/>
<path d="M266.205 345.168C264.247 348.432 261.483 351.137 258.178 353.025C254.874 354.912 251.139 355.919 247.334 355.948L161.374 356.599L157.646 334.976L195.672 323.792L163.61 299.187L198.654 258.179L262.304 317.503C266.024 320.97 268.441 325.61 269.151 330.645C269.861 335.681 268.821 340.808 266.205 345.168Z" fill="#2F2E41"/>
<path d="M147.953 493.045H127.821C109.746 369.147 91.3474 244.903 145.716 198.53L209.838 208.968L201.636 263.398L165.847 304.406L147.953 493.045Z" fill="#2F2E41"/>
<path d="M165.649 521.112C164.073 521.541 162.424 521.633 160.81 521.38C159.197 521.127 157.655 520.535 156.286 519.643L134.427 516.705C129.73 513.645 126.338 508.949 124.907 503.528C123.477 498.108 124.111 492.35 126.686 487.37C135.943 492.808 144.063 492.049 151.12 485.491C156.106 495.558 164.321 494.944 172.167 503.426C173.205 504.949 173.865 506.699 174.091 508.529C174.316 510.36 174.101 512.217 173.464 513.948C172.826 515.678 171.784 517.231 170.425 518.477C169.066 519.723 167.428 520.626 165.649 521.112Z" fill="#2F2E41"/>
<path d="M195.672 115.767L158.391 106.82C164.583 94.1461 165.093 80.0438 162.119 65.0659L187.47 64.3203C188.264 82.9457 190.667 100.347 195.672 115.767Z" fill="#FFB8B8"/>
<path d="M205.918 231.418C178.779 249.911 159.603 232.051 144.97 204.495C147.004 187.633 143.711 167.454 137.614 145.528C134.902 135.858 135.914 125.521 140.451 116.561C144.988 107.6 152.719 100.666 162.119 97.1271L194.18 110.548C221.404 132.739 226.762 156.775 216.549 182.127L205.918 231.418Z" fill="#6C63FF"/>
<path d="M127.821 134.408L97.9969 150.065L150.935 181.381L158.301 199.55C158.793 200.763 159.032 202.063 159.005 203.372C158.978 204.68 158.684 205.969 158.143 207.16C157.601 208.351 156.822 209.42 155.854 210.3C154.886 211.181 153.749 211.855 152.512 212.281C151.106 212.766 149.606 212.919 148.131 212.728C146.656 212.536 145.245 212.006 144.009 211.179C142.773 210.351 141.745 209.248 141.006 207.957C140.268 206.666 139.838 205.222 139.75 203.737L139.005 191.074L71.7216 168.87C69.4546 168.122 67.3876 166.868 65.6771 165.203C63.9666 163.537 62.6575 161.505 61.8489 159.259C60.6703 155.985 60.6103 152.412 61.6783 149.101C62.7464 145.789 64.8822 142.925 67.7515 140.956L121.856 103.838L127.821 134.408Z" fill="#FFB8B8"/>
<path d="M157.646 137.39C145.207 131.939 133.896 137.86 119.62 142.609L117.383 103.092C131.559 95.5363 145.075 93.4992 157.646 99.364L157.646 137.39Z" fill="#6C63FF"/>
<path d="M172.525 83.8946C185.67 83.8946 196.327 73.2381 196.327 60.0925C196.327 46.947 185.67 36.2904 172.525 36.2904C159.379 36.2904 148.723 46.947 148.723 60.0925C148.723 73.2381 159.379 83.8946 172.525 83.8946Z" fill="#FFB8B8"/>
<path d="M201 57.0893C177.434 59.3974 159.477 55.5432 148 44.5692V35.7315H199L201 57.0893Z" fill="#2F2E41"/>
<path d="M355.241 214.787C354.565 215.032 353.844 215.066 353.152 214.887C352.46 214.708 351.821 214.321 351.3 213.766C350.778 213.21 350.393 212.506 350.182 211.724C349.972 210.942 349.943 210.11 350.099 209.311C352.447 198.029 361.375 170.439 393.898 158.835C407.986 153.809 421.497 153.723 434.038 158.578C444.356 162.556 451.205 168.781 454.481 171.79C455.313 172.55 455.85 173.662 455.973 174.88C456.096 176.097 455.795 177.321 455.136 178.283C455.128 178.295 455.12 178.307 455.112 178.318C454.435 179.283 453.458 179.902 452.391 180.042C451.323 180.182 450.25 179.832 449.404 179.067C443.468 173.665 425.455 157.254 396.261 167.67C367.755 177.841 360.012 201.631 358.003 211.364C357.851 212.169 357.514 212.91 357.028 213.513C356.542 214.115 355.925 214.555 355.241 214.787H355.241Z" fill="#6C63FF"/>
<path d="M443.945 278.71C443.621 278.831 443.285 278.903 442.945 278.927C417.457 280.504 401.24 256.172 400.574 255.158L400.451 254.924C400.044 254.199 390.232 237.045 394.552 223.421C396.536 217.192 400.924 212.821 407.631 210.44C413.869 208.225 418.974 208.88 423.319 212.445C426.881 215.35 429.165 219.682 431.378 223.865C435.98 232.549 438.801 236.968 447.549 234.419C451.391 233.299 453.184 229.848 454.003 227.159C456.209 219.845 454.254 209.873 449.081 202.328C442.398 192.54 423.696 176.283 400.621 184.474C390.766 187.971 382.702 194.864 377.301 204.355C372.827 212.232 370.226 222.015 370.169 231.137C370.08 248.124 382.195 270.472 382.31 270.674C382.589 271.187 382.777 271.758 382.864 272.354C382.951 272.95 382.935 273.561 382.817 274.15C382.699 274.739 382.481 275.295 382.175 275.788C381.87 276.28 381.483 276.699 381.037 277.019C381.024 277.028 381.012 277.037 380.999 277.046C380.085 277.701 378.983 277.917 377.932 277.646C376.881 277.376 375.964 276.641 375.38 275.601C374.833 274.579 361.896 250.751 362.001 231.119C362.146 209.839 373.399 184.442 398.241 175.625C409.724 171.549 421.791 172.234 433.147 177.584C441.948 181.756 450.094 188.662 455.48 196.548C462.358 206.614 464.782 219.79 461.65 230.073C459.563 236.929 455.241 241.66 449.497 243.351C434.527 247.727 428.663 236.71 424.386 228.674C419.994 220.435 417.565 216.572 409.974 219.267C405.806 220.746 403.238 223.117 402.159 226.523C400.689 231.179 402.082 237.147 403.509 241.331C403.524 241.375 403.538 241.418 403.553 241.461C405.383 246.779 408.238 251.551 411.904 255.418C417.777 261.649 428.679 270.534 442.575 269.677C443.637 269.601 444.682 270.013 445.48 270.823C446.278 271.632 446.763 272.773 446.829 273.994C446.83 274.008 446.831 274.023 446.831 274.038C446.864 275.073 446.599 276.091 446.077 276.936C445.556 277.781 444.806 278.404 443.945 278.71Z" fill="#6C63FF"/>
<path d="M412.973 287.789C412.444 287.977 411.888 288.041 411.338 287.974C410.788 287.908 410.255 287.713 409.772 287.402C397.267 279.215 388.489 268.204 382.168 252.771L382.142 252.676C378.158 242.386 375.76 226.664 381.05 213.377C384.956 203.572 392.286 196.681 402.802 192.927C415.239 188.488 426.82 191.756 436.325 202.335C440.647 207.217 444.162 212.97 446.697 219.311C447.102 220.451 447.101 221.73 446.695 222.87C446.29 224.01 445.512 224.92 444.531 225.403C443.549 225.886 442.443 225.903 441.45 225.45C440.458 224.997 439.66 224.112 439.228 222.984C437.082 217.692 434.118 212.897 430.483 208.834C423.157 200.779 414.64 198.398 405.141 201.789C396.931 204.719 391.279 209.9 388.385 217.188C384.212 227.679 386.36 240.779 389.478 248.841C395.052 262.49 402.783 272.172 413.789 279.365C414.243 279.661 414.643 280.058 414.965 280.533C415.287 281.008 415.524 281.551 415.665 282.132C415.805 282.713 415.845 283.32 415.782 283.919C415.719 284.518 415.555 285.096 415.298 285.621C415.288 285.642 415.278 285.663 415.267 285.684C414.755 286.689 413.937 287.44 412.973 287.789Z" fill="#6C63FF"/>
<path d="M680.627 198.993L660.172 179.902L639.717 198.993L633.482 193.172L660.172 168.261L686.862 193.172L680.627 198.993Z" fill="#6C63FF"/>
<path d="M661.631 253.511V245.75H653.291V253.511H661.631ZM653.291 214.553V222.313H661.631V214.553H653.291ZM661.631 237.912V230.151H653.291V237.912H661.631Z" fill="#6C63FF"/>
<path d="M680.418 264.026L659.963 283.137L639.508 264.046L633.274 269.866L659.963 294.758L686.653 269.847L680.418 264.026Z" fill="#6C63FF"/>
<path d="M305.632 94.12C305.632 91.672 305.296 89.872 304.624 88.72C303.952 87.52 302.608 86.92 300.592 86.92H299.152V85.48H317.872C322.48 85.48 326.632 86.464 330.328 88.432C334.024 90.4 335.872 94.216 335.872 99.88C335.872 103.624 334.912 106.504 332.992 108.52C331.072 110.536 328.912 111.88 326.512 112.552C324.16 113.224 322 113.56 320.032 113.56H312.112V133H305.632V94.12ZM317.512 111.04C319.048 111.04 320.68 110.656 322.408 109.888C324.136 109.072 325.6 107.8 326.8 106.072C328.048 104.344 328.672 102.16 328.672 99.52C328.672 96.88 328.048 94.696 326.8 92.968C325.6 91.24 324.136 89.992 322.408 89.224C320.68 88.408 319.048 88 317.512 88C315.832 88 314.032 88.24 312.112 88.72V110.32C314.032 110.8 315.832 111.04 317.512 111.04ZM343.487 107.8C343.487 105.352 343.151 103.552 342.479 102.4C341.807 101.2 340.463 100.6 338.447 100.6H337.727V99.16H343.487C345.311 99.16 346.679 99.424 347.591 99.952C348.551 100.432 349.223 101.248 349.607 102.4H349.967C350.831 101.296 351.983 100.36 353.423 99.592C354.911 98.824 356.639 98.44 358.607 98.44C360.527 98.44 361.967 98.8 362.927 99.52C363.743 100.144 364.583 101.224 365.447 102.76L362.567 104.92C362.039 104.2 361.271 103.672 360.263 103.336C359.255 102.952 358.103 102.76 356.807 102.76C355.367 102.76 354.047 103.096 352.847 103.768C351.647 104.392 350.687 105.256 349.967 106.36V133H343.487V107.8ZM379.592 133.72C378.056 133.72 376.496 133.408 374.912 132.784C373.328 132.112 371.96 131.032 370.808 129.544C369.704 128.056 369.152 126.088 369.152 123.64C369.152 119.992 370.832 117.4 374.192 115.864C377.6 114.328 382.04 113.56 387.512 113.56H389.672C389.672 108.856 389.024 105.64 387.728 103.912C386.432 102.184 384.56 101.32 382.112 101.32C379.952 101.32 378.224 101.776 376.928 102.688C375.632 103.6 374.72 105.184 374.192 107.44H370.952C370.952 105.808 371.048 104.536 371.24 103.624C371.432 102.664 371.936 101.776 372.752 100.96C373.616 100.096 375.032 99.472 377 99.088C379.016 98.656 381.2 98.44 383.552 98.44C387.44 98.44 390.512 99.496 392.768 101.608C395.024 103.672 396.152 107.656 396.152 113.56V133H392.552L390.032 129.76H389.672C388.808 130.864 387.536 131.8 385.856 132.568C384.176 133.336 382.088 133.72 379.592 133.72ZM382.832 130.48C384.416 130.48 385.736 130.096 386.792 129.328C387.848 128.56 388.808 127.504 389.672 126.16V116.44H387.512C383.96 116.44 381.152 117.112 379.088 118.456C377.024 119.752 375.992 121.48 375.992 123.64C375.992 125.848 376.64 127.552 377.936 128.752C379.28 129.904 380.912 130.48 382.832 130.48ZM417.496 133.72C411.976 133.72 408.256 132.76 406.336 130.84C405.52 130.024 405.016 129.112 404.824 128.104C404.632 127.048 404.536 125.44 404.536 123.28H405.976C406.408 125.68 407.44 127.552 409.072 128.896C410.752 130.192 413.08 130.84 416.056 130.84C418.696 130.84 420.664 130.384 421.96 129.472C423.304 128.56 423.976 127.336 423.976 125.8C423.976 124.408 423.448 123.208 422.392 122.2C421.384 121.192 419.752 120.232 417.496 119.32L413.176 117.52C410.296 116.368 408.136 115.024 406.696 113.488C405.256 111.952 404.536 110.056 404.536 107.8C404.536 104.872 405.64 102.592 407.848 100.96C410.056 99.28 412.912 98.44 416.416 98.44C421.696 98.44 425.296 99.4 427.216 101.32C428.032 102.136 428.536 103.048 428.728 104.056C428.92 105.064 429.016 106.672 429.016 108.88H427.576C427.192 106.48 426.184 104.632 424.552 103.336C422.92 101.992 420.688 101.32 417.856 101.32C415.6 101.32 413.824 101.8 412.528 102.76C411.28 103.672 410.656 104.872 410.656 106.36C410.656 108.856 412.576 110.896 416.416 112.48L420.736 114.28C424 115.624 426.376 117.064 427.864 118.6C429.352 120.088 430.096 122.008 430.096 124.36C430.096 127.288 428.92 129.592 426.568 131.272C424.216 132.904 421.192 133.72 417.496 133.72ZM441.061 134.008C440.005 134.008 439.093 133.624 438.325 132.856C437.557 132.088 437.173 131.152 437.173 130.048C437.173 128.992 437.557 128.08 438.325 127.312C439.093 126.544 440.005 126.16 441.061 126.16C442.165 126.16 443.077 126.544 443.797 127.312C444.565 128.08 444.949 128.992 444.949 130.048C444.949 131.152 444.565 132.088 443.797 132.856C443.029 133.624 442.117 134.008 441.061 134.008Z" fill="black"/>
<path d="M457.961 94.84C456.857 94.84 455.897 94.384 455.081 93.472C454.313 92.56 453.929 91.48 453.929 90.232C453.929 89.224 454.217 88.432 454.793 87.856C455.417 87.28 456.233 86.992 457.241 86.992C458.345 86.992 459.281 87.448 460.049 88.36C460.865 89.272 461.273 90.352 461.273 91.6C461.273 92.608 460.961 93.4 460.337 93.976C459.761 94.552 458.969 94.84 457.961 94.84ZM455.225 107.8C455.225 105.352 454.889 103.552 454.217 102.4C453.545 101.2 452.201 100.6 450.185 100.6H448.745V99.16H455.225C457.001 99.16 458.321 99.4 459.185 99.88C460.097 100.312 460.745 101.128 461.129 102.328C461.513 103.528 461.705 105.352 461.705 107.8V133H455.225V107.8ZM483.024 133.72C478.848 133.72 475.632 132.064 473.376 128.752C471.168 125.44 470.064 121.216 470.064 116.08C470.064 110.944 471.216 106.72 473.52 103.408C475.872 100.096 479.28 98.44 483.744 98.44C485.568 98.44 487.176 98.632 488.568 99.016C489.96 99.4 491.352 99.928 492.744 100.6V94.12C492.744 91.672 492.408 89.872 491.736 88.72C491.064 87.52 489.72 86.92 487.704 86.92H486.264V85.48H492.744C494.52 85.48 495.84 85.72 496.704 86.2C497.616 86.632 498.264 87.448 498.648 88.648C499.032 89.848 499.224 91.672 499.224 94.12V133H495.624L493.104 129.76H492.744C491.688 130.96 490.44 131.92 489 132.64C487.608 133.36 485.616 133.72 483.024 133.72ZM485.184 130.84C487.152 130.84 488.64 130.48 489.648 129.76C490.656 129.04 491.688 127.96 492.744 126.52V103.48C491.304 102.808 490.056 102.28 489 101.896C487.944 101.512 486.912 101.32 485.904 101.32C482.832 101.32 480.552 102.664 479.064 105.352C477.624 108.04 476.904 111.616 476.904 116.08C476.904 120.496 477.6 124.072 478.992 126.808C480.384 129.496 482.448 130.84 485.184 130.84Z" fill="#E3DF6B"/>
</svg>
